<?xml version="1.0" standalone="no"?>
<!DOCTYPE svg PUBLIC "-//W3C//DTD SVG 1.1//EN" "http://www.w3.org/Graphics/SVG/1.1/DTD/svg11.dtd" >
<!--
2013-9-30: Created.
-->
<svg>
<metadata>
Created by iconfont
</metadata>
<defs>

<font id="iconfont" horiz-adv-x="1024" >
  <font-face
    font-family="iconfont"
    font-weight="500"
    font-stretch="normal"
    units-per-em="1024"
    ascent="896"
    descent="-128"
  />
    <missing-glyph />
    
    <glyph glyph-name="x" unicode="x" horiz-adv-x="1001"
d="M281 543q-27 -1 -53 -1h-83q-18 0 -36.5 -6t-32.5 -18.5t-23 -32t-9 -45.5v-76h912v41q0 16 -0.5 30t-0.5 18q0 13 -5 29t-17 29.5t-31.5 22.5t-49.5 9h-133v-97h-438v97zM955 310v-52q0 -23 0.5 -52t0.5 -58t-10.5 -47.5t-26 -30t-33 -16t-31.5 -4.5q-14 -1 -29.5 -0.5
t-29.5 0.5h-32l-45 128h-439l-44 -128h-29h-34q-20 0 -45 1q-25 0 -41 9.5t-25.5 23t-13.5 29.5t-4 30v167h911zM163 247q-12 0 -21 -8.5t-9 -21.5t9 -21.5t21 -8.5q13 0 22 8.5t9 21.5t-9 21.5t-22 8.5zM316 123q-8 -26 -14 -48q-5 -19 -10.5 -37t-7.5 -25t-3 -15t1 -14.5
t9.5 -10.5t21.5 -4h37h67h81h80h64h36q23 0 34 12t2 38q-5 13 -9.5 30.5t-9.5 34.5q-5 19 -11 39h-368zM336 498v228q0 11 2.5 23t10 21.5t20.5 15.5t34 6h188q31 0 51.5 -14.5t20.5 -52.5v-227h-327z" />
    

    
    <glyph glyph-name="shuaxin" unicode="&#58960;" d="M960 265.6c-12.8 3.2-25.6-3.2-32-12.8-76.8-204.8-320-307.2-544-227.2-224 80-342.4 307.2-265.6 512 76.8 204.8 320 307.2 544 227.2 92.8-32 172.8-92.8 224-172.8l-92.8 0c-12.8 0-25.6-9.6-25.6-22.4 0-12.8 9.6-22.4 25.6-22.4l153.6 0c12.8 0 25.6 9.6 25.6 22.4l0 140.8c0 12.8-9.6 22.4-25.6 22.4-12.8 0-25.6-9.6-25.6-22.4l0-89.6c-57.6 86.4-140.8 150.4-246.4 188.8-249.6 86.4-518.4-28.8-608-256-86.4-230.4 44.8-486.4 294.4-572.8 249.6-86.4 518.4 28.8 608 256C979.2 246.4 972.8 259.2 960 265.6z"  horiz-adv-x="1024" />

    
    <glyph glyph-name="xiangyoujiantou" unicode="&#58975;" d="M761.6 406.4l-432 435.2c-9.6 9.6-25.6 9.6-35.2 0-9.6-9.6-9.6-25.6 0-35.2l416-416-416-425.6c-9.6-9.6-9.6-25.6 0-35.2s25.6-9.6 35.2 0l432 441.6C771.2 380.8 771.2 396.8 761.6 406.4z"  horiz-adv-x="1024" />

    
    <glyph glyph-name="xiangzuojiantou" unicode="&#58976;" d="M729.6-35.2l-416 425.6 416 416c9.6 9.6 9.6 25.6 0 35.2-9.6 9.6-25.6 9.6-35.2 0l-432-435.2c-9.6-9.6-9.6-25.6 0-35.2l432-441.6c9.6-9.6 25.6-9.6 35.2 0C739.2-60.8 739.2-44.8 729.6-35.2z"  horiz-adv-x="1024" />

    
    <glyph glyph-name="xia" unicode="&#58940;" d="M904 564c0 8.189-3.124 16.379-9.372 22.628-12.497 12.496-32.759 12.496-45.256 0L512 249.255 174.628 586.628c-12.497 12.496-32.758 12.496-45.255 0-12.497-12.498-12.497-32.758 0-45.256l360-360c12.497-12.496 32.758-12.496 45.255 0l360 360C900.876 547.621 904 555.811 904 564z"  horiz-adv-x="1024" />

    
    <glyph glyph-name="gengduo" unicode="&#59484;" d="M288 320a64 64 0 1 0-0.032 127.968A64 64 0 0 0 288 320z m224 0a64 64 0 1 0-0.032 127.968A64 64 0 0 0 512 320z m224 0a64 64 0 1 0-0.032 127.968A64 64 0 0 0 736 320z"  horiz-adv-x="1024" />

    
    <glyph glyph-name="guanbi" unicode="&#58916;" d="M512 439.689846L94.247385 857.442462a39.542154 39.542154 0 0 1-55.689847 0 39.266462 39.266462 0 0 1 0-55.689847L456.310154 384 38.557538-33.752615a39.542154 39.542154 0 0 1 0-55.689847 39.266462 39.266462 0 0 1 55.689847 0L512 328.310154l417.752615-417.752616c15.163077-15.163077 40.290462-15.36 55.689847 0a39.266462 39.266462 0 0 1 0 55.689847L567.689846 384 985.442462 801.752615a39.542154 39.542154 0 0 1 0 55.689847 39.266462 39.266462 0 0 1-55.689847 0L512 439.689846z"  horiz-adv-x="1024" />

    
    <glyph glyph-name="SSO-shop" unicode="&#58895;" d="M1399.509333 663.445333H587.370667l-64 168.96-211.733334-0.021333v-46.272h150.4l274.666667-721.770667h535.232v85.333334H781.141333l-17.770666 44.437333h528zM835.349333-31.253332999999998m-53.738666 0a53.738667 53.738667 0 1 1 107.477333 0 53.738667 53.738667 0 1 1-107.477333 0ZM1143.36-31.253332999999998m-53.738667 0a53.738667 53.738667 0 1 1 107.477334 0 53.738667 53.738667 0 1 1-107.477334 0Z"  horiz-adv-x="1792" />

    
    <glyph glyph-name="SSO-BI" unicode="&#58896;" d="M846.677333 754.602667c-231.914667 0-419.946667-188.010667-419.946666-419.946667 0-231.936 188.010667-419.946667 419.946666-419.946667 226.965333 0 411.370667 180.138667 419.178667 405.205334H846.677333V754.602667zM945.344 853.269333v-434.666666h419.178667c0.192 4.928 0.746667 9.749333 0.746666 14.72 0 231.936-187.989333 419.946667-419.925333 419.946666z"  horiz-adv-x="1792" />

    
    <glyph glyph-name="SSO-hr" unicode="&#58897;" d="M1748.202667 185.34400000000005l-137.429334 137.429333c85.610667 10.688 151.893333 83.562667 151.893334 172.074667l-0.042667 2.56a173.546667 173.546667 0 0 1-173.504 171.008h-157.952c-6.549333 0.042667-2.88-0.085333-3.733333-0.085333-19.882667 0-37.44-10.517333-47.466667-26.197334a58.261333 58.261333 0 0 1-11.221333-26.730666l-24.768-176.213334h-84.288l22.762666 161.962667a58.965333 58.965333 0 0 1-116.757333 16.405333l-25.066667-178.346666h-205.248l22.762667 161.962666a58.986667 58.986667 0 0 1-116.757333 16.405334l-25.066667-178.368h-9.898667a58.944 58.944 0 0 1-58.944-58.944 58.752 58.752 0 0 1 52.373334-58.282667l-24.085334-171.392a58.965333 58.965333 0 0 1 116.757334-16.384l26.304 187.114667h205.248l-24-170.709334a58.965333 58.965333 0 0 1 116.736-16.405333l26.304 187.114667h84.288l-24.298667-172.864a58.986667 58.986667 0 0 1 116.757333-16.405334l26.496 188.48L1664.832 101.97333300000003a58.965333 58.965333 0 0 1 83.370667 83.370667zM1479.573333 557.077333h104.682667c32.661333 0 62.997333-23.104 62.997333-55.765333v-0.192c0-29.354667-24.490667-55.893333-53.141333-60.992a56.256 56.256 0 0 0-9.834667-0.938667H1462.997333l16.576 117.888zM457.194667 668.394667H182.122667c-8.298667 0-16.149333-1.749333-23.317334-4.842667a58.837333 58.837333 0 0 1-53.034666-50.368l-65.642667-466.986667a58.965333 58.965333 0 0 1 50.176-66.581333c4.48-0.618667 8.96-0.704 13.290667-0.298667 2.133333-0.256 4.288-0.405333 6.485333-0.405333h275.072a58.965333 58.965333 0 0 1 0 117.909333H166.314667l17.578666 125.098667h207.808a58.944 58.944 0 1 1 0 117.888H200.448l15.552 110.677333h241.194667a58.965333 58.965333 0 1 1 0 117.909334zM601.194667 380.52266699999996m-58.944 0a58.944 58.944 0 1 1 117.888 0 58.944 58.944 0 1 1-117.888 0Z"  horiz-adv-x="1792" />

    
    <glyph glyph-name="SSO-OA" unicode="&#58898;" d="M972.202667 290.901333h-149.333334c-117.824 0-213.333333-95.509333-213.333333-213.333333v-85.333333h576v85.333333c0 117.824-95.509333 213.333333-213.333333 213.333333zM897.536 557.568m-224 0a224 224 0 1 1 448 0 224 224 0 1 1-448 0ZM609.536 333.76a170.026667 170.026667 0 0 1 84.245333 22.314667c-63.744 44.288-105.578667 117.952-105.578666 201.493333 0 42.325333 10.709333 82.176 29.589333 116.906667-2.752 0.128-5.461333 0.426667-8.256 0.426666-94.378667 0-170.88-76.373333-170.88-170.581333 0-94.186667 76.501333-170.56 170.88-170.56zM1254.272 290.304H1170.773333a170.325333 170.325333 0 0 0 45.077334-63.957333c2.048 0.149333 3.968 0.576 5.994666 0.576h55.338667c43.626667 0 78.997333-34.133333 78.997333-76.202667v-30.506667h-128v-64h192V123.09333300000003c0.021333 92.373333-74.282667 167.210667-165.909333 167.210667zM630.954667 290.986667h-85.717334c-94.101333 0-170.368-75.072-170.368-167.658667v-67.093333h197.12v64.192h-131.413333v30.570666c0 42.218667 36.330667 76.458667 81.130667 76.458667h56.789333c2.112 0 4.074667-0.448 6.165333-0.597333a171.008 171.008 0 0 0 46.293334 64.128zM1101.269333 356.05333299999995a170.24 170.24 0 0 1 84.266667-22.314666c94.378667 0 170.88 76.373333 170.88 170.56 0 94.208-76.501333 170.581333-170.88 170.581333-2.794667 0-5.504-0.298667-8.277333-0.426667a244.181333 244.181333 0 0 0 29.610666-116.906666c0-83.52-41.834667-157.184-105.6-201.493334z"  horiz-adv-x="1792" />

    
    <glyph glyph-name="SSO-CRM" unicode="&#58899;" d="M1380.373333 745.706667l7.808-24.448 21.973334-8.234667-18.602667-16.704-0.917333-26.282667-19.285334 14.122667-22.528-8 6.656 25.450667-12.992 21.333333 23.36 1.578667 14.528 21.184M1516.053333 877.184l6.826667-46.357333 37.568-21.824-38.997333-24.021334-9.685334-46.805333-30.912 31.509333-43.541333-7.125333 19.904 43.477333-17.237333 42.410667 43.178666-4.629333L1516.053333 877.184M831.552 654.037333l-162.773333-621.290666 397.866666 165.482666zM1066.986667 201.15200000000004l-398.208-165.504 145.322666-133.525333zM1063.722667 204.05333299999995l-58.112-264.192h-52.309334zM1066.986667 204.373333l-130.794667-313.536-127.872 17.408zM835.434667 643.648l228.629333 97.493333-154.048-241.301333zM907.114667 503.061333l54.912-104.490666 142.741333-34.858667zM1058.261333 735.317333l-151.146666-235.157333 191.829333-139.349333zM1159.658667 483.093333l29.077333-43.541333-17.450667-63.893333-75.562666-5.802667zM1188.650667 439.637333l-93.888-74.432 38.869333 71.189334zM1188.650667 436.394667l-16.192-61.482667-71.189334-3.242667zM1055.274667 743.893333l157.077333-185.685333-116.074667-194.602667zM694.933333 131.45600000000002l139.52 522.581333-261.589333-246.762666zM694.933333 134.35733300000004l-127.872 290.325334 2.922667-307.733334zM570.282667 421.781333l5.824-304.832-81.386667 252.565334zM495.061333 384.042667l-154.069333-484.842667 238.357333 217.749333zM579.690667 119.85066700000004l-116.288-107.413334 31.978666-66.773333zM497.962667 384.042667l-229.632-200.341334 78.485333-284.501333z"  horiz-adv-x="1792" />

    
    <glyph glyph-name="SSO-car" unicode="&#58900;" d="M1433.621333 842.602667h-496a85.333333 85.333333 0 0 1-85.333333-85.333334v-597.461333a85.333333 85.333333 0 0 1 85.333333-85.333333h57.237334c10.517333 95.978667 92.010667 170.922667 190.762666 170.922666s180.245333-74.944 190.762667-170.922666h57.237333a85.333333 85.333333 0 0 1 85.333334 85.333333V757.269333a85.333333 85.333333 0 0 1-85.333334 85.333334zM1185.621333 53.397333m-128 0a128 128 0 1 1 256 0 128 128 0 1 1-256 0ZM502.954667 53.397333m-128 0a128 128 0 1 1 256 0 128 128 0 1 1-256 0ZM705.621333 714.474667H430.976l-216.021333-282.666667v-272a85.333333 85.333333 0 0 1 85.333333-85.333333h11.904c10.517333 95.978667 92.010667 170.922667 190.762667 170.922666s180.245333-74.944 190.762666-170.922666h11.904a85.333333 85.333333 0 0 1 85.333334 85.333333v469.333333a85.333333 85.333333 0 0 1-85.333334 85.333334z m-64-360.896H325.162667v42.666666l146.666666 190.229334h169.792v-232.896z"  horiz-adv-x="1792" />

    
    <glyph glyph-name="SSO-OCP" unicode="&#58901;" d="M1232.832 832.661333H657.792a176.170667 176.170667 0 0 1-176.170667-176.170666v-545.024a176.149333 176.149333 0 0 1 176.170667-176.149334h575.04a176.170667 176.170667 0 0 1 176.192 176.149334V656.490667a176.170667 176.170667 0 0 1-176.192 176.170666z m7.466667-266.24c-23.957333-141.312-146.922667-249.365333-294.954667-249.365333-148.053333 0-271.04 108.053333-294.997333 249.365333a59.413333 59.413333 0 0 0-27.669334 50.154667 59.562667 59.562667 0 1 0 119.104 0c0-20.693333-10.581333-38.890667-26.624-49.557333 22.826667-106.133333 117.312-185.962667 230.186667-185.962667s207.338667 79.829333 230.165333 185.962667a59.562667 59.562667 0 1 0 92.48 49.557333c0-21.141333-11.093333-39.594667-27.690666-50.154667z"  horiz-adv-x="1792" />

    
    <glyph glyph-name="SSO-data" unicode="&#58902;" d="M737.770667 853.269333h-234.666667a21.333333 21.333333 0 0 1-21.333333-21.333333v-895.872a21.333333 21.333333 0 0 1 21.333333-21.333333h234.666667a21.333333 21.333333 0 0 1 21.333333 21.333333V831.936a21.333333 21.333333 0 0 1-21.333333 21.333333zM1068.373333 581.205333h-234.666666a21.333333 21.333333 0 0 1-21.333334-21.333333v-623.808a21.333333 21.333333 0 0 1 21.333334-21.333333h234.666666a21.333333 21.333333 0 0 1 21.333334 21.333333V559.8720000000001a21.333333 21.333333 0 0 1-21.333334 21.333333z m-36.629333-597.098666a12.522667 12.522667 0 0 0-12.501333-12.501334h-137.450667a12.501333 12.501333 0 0 0-12.501333 12.501334V511.808c0 6.933333 5.610667 12.522667 12.501333 12.522667h137.450667c6.869333 0 12.501333-5.589333 12.501333-12.522667v-527.701333zM1398.976 278.91200000000003h-234.666667a21.333333 21.333333 0 0 1-21.333333-21.333333v-321.514667a21.333333 21.333333 0 0 1 21.333333-21.333333h234.666667a21.333333 21.333333 0 0 1 21.333333 21.333333V257.578667a21.333333 21.333333 0 0 1-21.333333 21.333333z"  horiz-adv-x="1792" />

    
    <glyph glyph-name="SSO-project" unicode="&#58904;" d="M528.661333-16.341332999999963l276.309334 77.418666 28.608 28.629334-194.517334 194.538666-28.885333-28.842666-81.514667-271.744z m142.805334 333.013333l194.56-194.538667 380.202666 380.245334-194.517333 194.538666-380.245333-380.245333zM1333.994667 706.4533329999999l-78.272 78.250667c-44.8 44.8-71.488 44.8-116.224 0l-55.36-55.424 194.517333-194.453333 55.36 55.338666c44.757333 44.8 44.757333 71.509333-0.021333 116.288zM801.706667 779.2c-44.778667 44.757333-71.530667 44.757333-116.266667 0l-185.045333-185.088-32.426667 32.448 194.538667 194.538667a114.645333 114.645333 0 0 0 162.112 0l107.136-107.157334-32.426667-32.426666-97.621333 97.685333zM581.44 577.9200000000001l64.853333 64.874667 32.448-32.426667-64.853333-64.874667-3.861333 3.84 36.224-36.288 97.258666 97.344 32.448-32.448-97.258666-97.258666 9.898666-9.92-32.448-32.384-155.818666 155.754666 32.448 32.448 48.661333-48.661333z m453.930667-453.888l97.237333-97.258667 48.661333-48.661333 152.597334 152.618667c44.778667 44.8 44.778667 71.552 0 116.288l-102.336 102.336 32.405333 32.426666 111.850667-111.829333a114.624 114.624 0 0 0 0-162.133333l-162.112-162.133334-32.448-32.426666-32.405334 32.426666-160.512 160.533334 32.448 32.426666 14.613334-14.613333z m129.685333 64.810667l-97.258667-97.216-32.448 32.426666 97.237334 97.301334 32.469333-32.512z m16.213333-48.597334l32.426667-32.448-81.045333-81.002666-32.426667 32.426666 81.045333 81.024z"  horiz-adv-x="1792" />

    
    <glyph glyph-name="SSO-money" unicode="&#58905;" d="M1334.976 531.989333H567.104a85.333333 85.333333 0 0 1-85.333333-85.333333v-448a85.333333 85.333333 0 0 1 85.333333-85.333333h767.872a85.333333 85.333333 0 0 1 85.333333 85.333333v448a85.333333 85.333333 0 0 1-85.333333 85.333333zM1109.653333 168.40533300000004a38.144 38.144 0 0 0 0-76.288H999.893333v-62.293333c-1.728-29.162667-18.005333-43.712-48.853333-43.712s-47.168 14.549333-48.853333 43.712v62.293333h-109.717334a38.144 38.144 0 1 0 0 76.288h109.717334v23.701334h-109.717334a38.144 38.144 0 1 0 0 76.288h67.114667l-80.810667 113.642666a44.117333 44.117333 0 0 0-10.282666 28.266667c3.413333 29.12 19.690667 45.397333 48.853333 48.853333 17.109333-1.728 29.952-8.597333 38.570667-20.565333l95.125333-136.277333 95.125333 136.277333c8.554667 11.968 21.418667 18.837333 38.570667 20.565333 29.12-3.456 45.397333-19.733333 48.853333-48.853333 0-10.261333-3.456-19.733333-10.282666-28.266667l-80.810667-113.642666h67.157333a38.144 38.144 0 0 0 0-76.288H999.893333v-23.701334h109.76zM675.712 739.989333h550.677333a44.693333 44.693333 0 0 1 0 89.344H675.712a44.693333 44.693333 0 0 1 0-89.344zM615.253333 593.962667h671.573334a44.693333 44.693333 0 0 1 0 89.344H615.253333a44.693333 44.693333 0 0 1 0-89.344z"  horiz-adv-x="1792" />

    
    <glyph glyph-name="SSO-bigData" unicode="&#58906;" d="M733.44 142.037333L491.456 383.978667 733.44 625.962667l241.92-241.984-0.042667-0.064 92.544-92.544 92.586667 92.608L733.44 811.072l-427.093333-427.093333 427.093333-427.050667 181.674667 181.696-92.544 92.565333zM1151.850667 811.072l-181.674667-181.696 92.544-92.565333 89.130667 89.152L1393.813333 384 1151.850667 142.037333 909.888 384l0.085333 0.085333-92.565333 92.522667L724.821333 384l427.029334-427.072L1578.944 384z"  horiz-adv-x="1792" />

    
    <glyph glyph-name="SSO-README" unicode="&#58907;" d="M538.218667 174.65599999999995c-67.626667 15.424-135.296 30.677333-202.133334 49.344-8.533333 2.389333-13.397333 0.810667-15.936-8.874667-20.416-77.888-37.226667-156.373333-43.733333-236.864-0.896-11.050667 2.133333-14.421333 12.949333-14.293333 39.466667 0.426667 78.912 0.170667 118.378667 0.170667h118.378667c16.682667 0 17.066667 0.021333 16.618666 17.28a1126.613333 1126.613333 0 0 0 8.448 173.824c1.621333 12.394667-1.664 16.832-12.970666 19.413333zM1472.042667 214.44266700000003c-2.624 10.133333-7.509333 12.053333-16.661334 9.536-21.504-5.888-43.050667-11.733333-64.725333-16.981334a11902.549333 11902.549333 0 0 0-136.192-32.192c-10.666667-2.453333-17.173333-5.866667-13.653333-18.837333 2.304-8.490667 2.154667-17.706667 3.029333-26.602667 4.842667-49.344 6.549333-98.837333 5.376-148.437333-0.405333-16.746667-0.021333-16.768 17.109333-16.768h115.946667c40.277333 0 80.554667 0.192 120.832-0.149333 10.090667-0.085333 13.376 2.965333 12.522667 13.568-6.464 80.469333-23.296 158.933333-43.584 236.864zM1047.957333 775.936c-48.981333 18.666667-99.114667 30.656-152.426666 27.562667-52.864 3.2-103.317333-9.28-152.64-27.968-7.786667-2.944-11.029333-6.272-6.634667-15.232a11284.586667 11284.586667 0 0 0 70.4-146.730667c4.16-8.810667 9.109333-11.477333 18.922667-10.197333a540.288 540.288 0 0 0 139.605333 0.128c10.666667-1.386667 16.064 1.301333 20.672 11.157333a8232.746667 8232.746667 0 0 0 69.312 144.512c4.821333 9.856 1.877333 13.290667-7.210667 16.768zM607.530667 417.066667c-56.96 27.264-113.792 54.784-170.688 82.218666-2.538667 1.237333-5.141333 2.24-7.488 3.285334-5.248-0.512-6.869333-4.16-8.661334-7.936a2231.253333 2231.253333 0 0 1-69.056-164.608c-2.922667-7.786667-1.621333-12.458667 6.826667-16.085334a20046.677333 20046.677333 0 0 0 190.464-82.752c10.368-4.586667 13.973333-1.258667 15.765333 8.448a756.437333 756.437333 0 0 0 49.194667 161.216c3.541333 8.298667 1.408 12.501333-6.357333 16.213334zM1434.048 314.19733299999996c8.661333 3.712 8.832 8.853333 5.994667 16.448-20.416 55.082667-43.498667 109.034667-67.776 162.517334-4.117333 9.109333-8.682667 10.496-17.813334 6.016a17665.856 17665.856 0 0 0-169.472-81.877334c-8.362667-4.010667-10.581333-8.384-6.677333-17.088 10.410667-23.296 18.986667-47.317333 26.666667-71.637333 9.130667-29.013333 16.725333-58.410667 22.378666-88.32 0.896-4.672 0.597333-11.242667 8.789334-11.626667 1.429333 0.576 3.328 1.258667 5.162666 2.048 64.213333 27.861333 128.426667 55.850667 192.746667 83.52zM649.216 720.7893329999999c-8.341333 10.026667-14.165333 9.621333-24.128 3.328-54.784-34.538667-99.264-79.658667-138.005333-131.050666-6.976-9.237333-3.712-13.824 4.032-19.584 46.677333-34.624 93.12-69.546667 139.669333-104.362667 12.181333-9.109333 13.312-8.96 21.824 3.562667 27.989333 41.088 60.757333 77.248 104.725333 101.845333 3.797333 2.133333 6.784 4.437333 6.656 9.109333 0 4.672-3.562667 7.210667-6.165333 10.218667-36.288 42.282667-72.981333 84.16-108.608 126.933333zM1309.525333 584.96c-1.045333 1.792-2.218667 4.373333-3.904 6.613333a984.213333 984.213333 0 0 1-17.877333 23.168c-35.136 43.754667-75.648 81.493333-123.733333 110.805334-5.76 3.498667-10.752 7.274667-16.874667 0.128-38.528-45.141333-77.269333-90.090667-115.882667-135.125334-4.821333-5.632-5.205333-11.093333 1.962667-15.082666 45.952-25.536 79.914667-63.296 108.522667-106.474667 4.672-7.04 9.685333-7.317333 16.234666-2.368 48.405333 36.394667 96.896 72.64 145.344 108.970667 2.901333 2.154667 6.101333 4.245333 6.208 9.365333z"  horiz-adv-x="1792" />

    
    <glyph glyph-name="SSO-sport" unicode="&#58908;" d="M868.906667 620.778667c0.448-30.378667 3.477333-62.954667 13.482666-95.509334 135.552 77.589333 218.837333 107.008 377.856 132.629334a469.312 469.312 0 0 1-280.042666 184.384c-42.837333-50.56-112.405333-148.266667-111.296-221.504zM592.917333 753.557333c0.213333-1.706667 20.906667-164.010667 117.141334-332.458666a9270.037333 9270.037333 0 0 0 116.736 71.573333c-13.781333 38.165333-21.184 80.384-21.888 127.125333-1.258667 83.050667 57.664 175.466667 101.461333 232.618667a467.114667 467.114667 0 0 1-316.522667-99.242667l3.072 0.384zM1102.890667 334.229333c115.584-37.952 191.829333-46.592 235.626666-47.210666 6.592 31.296 10.090667 63.701333 10.090667 96.96 0 77.504-18.901333 150.549333-52.138667 214.912-169.045333-25.365333-247.936-51.84-387.285333-132.010667 32.597333-51.328 90.773333-98.816 193.706667-132.650667zM503.872 328.192c-24.512 31.168-60.906667 47.253333-93.802667 55.573333a467.754667 467.754667 0 0 1 31.872-169.749333 1011.306667 1011.306667 0 0 0 89.322667 81.792 741.205333 741.205333 0 0 0-27.392 32.384zM554.154667 367.76533300000006c8.384-10.666667 17.066667-20.501333 25.706666-30.336l1.984-2.24a1628.693333 1628.693333 0 0 0 74.176 51.584c-74.986667 130.218667-107.050667 254.784-119.530666 317.418667a467.626667 467.626667 0 0 1-121.898667-255.872c46.208-10.090667 101.525333-32.256 139.562667-80.554667zM691.136 327.48800000000006l-2.474667 4.16a1577.536 1577.536 0 0 1-66.602666-46.336c40.170667-57.92 71.786667-142.698667 66.773333-330.176a467.136 467.136 0 0 1 190.506667-40.426667c38.528 0 75.925333 4.757333 111.722666 13.504-116.458667 92.714667-209.557333 248.149333-299.925333 399.274667zM1082.922667 273.42933300000004c-107.669333 35.370667-183.232 88.832-228.202667 161.365334-33.28-20.032-70.186667-42.837333-112.064-68.8l3.392-5.674667c96.810667-161.877333 196.885333-328.746667 319.914667-406.954667a470.613333 470.613333 0 0 1 254.4 269.952c-51.562667 2.666667-128.896 14.464-237.44 50.112zM571.2 245.88800000000003c-42.346667-34.666667-74.688-66.176-99.733333-93.909333a471.274667 471.274667 0 0 1 154.005333-162.581334c0.661333 142.165333-22.912 209.450667-54.272 256.490667z"  horiz-adv-x="1792" />

    
    <glyph glyph-name="lock" unicode="&#58903;" d="M460.7488 155.44320000000005h101.5808v51.5584H614.4v101.632h-52.0704v51.6096H460.7488v-51.6096H409.6v-101.632h51.1488zM767.9488 517.0176h-1.4336V684.8a133.12 133.12 0 0 1-133.0176 133.0176H390.5536a133.1712 133.1712 0 0 1-133.0688-133.0176v-167.7824H256a102.4 102.4 0 0 1-102.4-102.4v-362.0352a102.4 102.4 0 0 1 102.4-102.4h511.9488a102.4 102.4 0 0 1 102.4 102.4V414.6176a102.4 102.4 0 0 1-102.4 102.4z m-408.064 167.7824a30.72 30.72 0 0 0 30.6688 30.6176h242.944a30.72 30.72 0 0 0 30.6176-30.6176v-167.7824H359.8848V684.8z m408.064-632.2176H256V414.6176h511.9488v-362.0352z"  horiz-adv-x="1024" />

    
    <glyph glyph-name="out" unicode="&#58909;" d="M675.5328 129.58720000000005c0-40.1408-30.6688-72.704-68.5568-72.704H230.0928c-37.8368 0-68.5568 32.5632-68.5568 72.704V638.3616c0 40.1408 30.72 72.704 68.5568 72.704h376.8832c37.888 0 68.5568-32.5632 68.5568-72.704v-20.736h93.44V711.0656a93.44 93.44 0 0 1-93.44 93.44H161.536A93.44 93.44 0 0 1 68.096 711.0656v-654.1312c0-51.6096 41.8304-93.44 93.44-93.44h513.9968a93.44 93.44 0 0 1 93.44 93.44v93.44h-93.44v-20.7872zM955.904 383.9488l-187.648 140.4928v-93.7472H301.7728v-93.44h466.4832v-93.7984z"  horiz-adv-x="1024" />

    
    <glyph glyph-name="link" unicode="&#58910;" d="M927.7952 616.3456l-117.0944 117.0944a90.368 90.368 0 0 1-127.6928 0l-142.6432-142.6432 75.6224-75.6736L709.12 608.256a52.8896 52.8896 0 0 0 74.8544 0l18.688-18.6368a52.9408 52.9408 0 0 0 0-74.9056l-188.672-188.672a52.992 52.992 0 0 0-74.8544 0l-51.712 51.712-75.8784-75.8784 100.9152-100.864a90.368 90.368 0 0 1 127.744 0l287.5904 287.5904a90.3168 90.3168 0 0 1 0 127.744zM316.672 159.69280000000003a52.992 52.992 0 0 0-74.8544 0l-18.688 18.688a52.8384 52.8384 0 0 0 0 74.8032l188.7232 188.7744a53.0432 53.0432 0 0 0 74.8032 0l51.7632-51.7632 75.8784 75.8272-100.9152 100.9664a90.3168 90.3168 0 0 1-127.744 0l-287.5904-287.6416a90.2144 90.2144 0 0 1 0.0512-127.6416l117.0432-117.0944c35.2256-35.2256 92.416-35.328 127.6928-0.0512l142.6432 142.6432-75.6224 75.6224-93.184-93.1328z"  horiz-adv-x="1024" />

    
    <glyph glyph-name="user" unicode="&#58911;" d="M512 844.7488a460.7488 460.7488 0 1 1 0-921.4976 460.7488 460.7488 0 0 1 0 921.4976zM220.4672 176.38400000000001zM512 25.651200000000017a356.096 356.096 0 0 0-218.2656 74.752c44.3392 74.8544 125.0816 125.7472 218.2656 125.7472 93.1328 0 173.8752-50.8928 218.1632-125.7984a362.496 362.496 0 0 1 73.5744 76.3392 358.2976 358.2976 0 0 1-154.8288 124.0576 197.12 197.12 0 0 1 60.8768 142.336 197.8368 197.8368 0 0 1-395.7248 0c0-56.064 23.5008-106.3424 60.928-142.336A358.656 358.656 0 0 1 220.16 176.69119999999998 355.9936 355.9936 0 0 0 153.6 383.9488a358.7584 358.7584 0 0 0 358.3488 358.3488c197.5808 0 358.3488-160.768 358.3488-358.3488S709.5808 25.651200000000017 512 25.651200000000017z m0 322.048a95.5904 95.5904 0 0 0-95.488 95.4368c0 52.6336 42.8032 95.4368 95.488 95.4368a95.488 95.488 0 0 0 0-190.8736z"  horiz-adv-x="1024" />

    
    <glyph glyph-name="SSO-weiketang" unicode="&#58912;" d="M883.818667 94.72000000000003h67.050666v-100.586667h-67.050666zM1160.064 94.72000000000003l59.008-167.616h67.029333l-60.309333 167.616zM548.565333-72.89599999999996h67.029334l59.008 167.616h-65.6zM948.416 865.770667h-61.525333l-36.266667-100.544h133.952zM1353.152 731.690667H481.514667c-18.517333 0-33.514667-15.018667-33.514667-33.536v-536.384c0-18.496 14.506667-33.493333 33.024-33.493334h872.106667a33.493333 33.493333 0 0 1 33.514666 33.493334V698.154667a33.493333 33.493333 0 0 1-33.493333 33.536z m-54.4-518.826667H535.914667V652.437333h762.837333v-439.573333zM1285.802667 639.530667H548.864v-413.76h736.96V639.530667zM951.978667 414.698667H635.733333v34.026666h316.245334v-34.026666z m148.672 95.786666H635.733333v34.005334h464.917334v-34.005334z"  horiz-adv-x="1792" />

    
    <glyph glyph-name="SSO-peisong" unicode="&#58913;" d="M1427.477333 768.448h-853.333333a42.666667 42.666667 0 0 1-42.666667-42.666667v-149.333333a42.666667 42.666667 0 0 1 42.666667-42.666667h10.56a42.453333 42.453333 0 0 1-1.237333-9.792v-90.666666h-113.642667a27.093333 27.093333 0 1 1 0-54.208h113.642667v-55.125334H348.906667a27.093333 27.093333 0 1 1 0-54.208H583.466667v-55.125333h-113.642667a27.093333 27.093333 0 1 1 0-54.208h113.642667v-118.229333a42.666667 42.666667 0 0 1 42.666666-42.666667h749.333334a42.666667 42.666667 0 0 1 42.666666 42.666667V523.989333c0 3.370667-0.469333 6.634667-1.237333 9.792h10.56a42.666667 42.666667 0 0 1 42.666667 42.666667v149.333333c0.021333 23.552-19.072 42.666667-42.645334 42.666667z m-10.666666-96v-42.666667a42.666667 42.666667 0 0 0-42.666667-42.666666H1031.488v128h342.677333a42.666667 42.666667 0 0 0 42.645334-42.666667z m-832 0a42.666667 42.666667 0 0 0 42.666666 42.666667h342.677334v-128H627.477333a42.666667 42.666667 0 0 0-42.666666 42.666666v42.666667z m446.677333-618.666667h-61.333333v480h61.333333v-480z"  horiz-adv-x="1792" />

    
    <glyph glyph-name="SSO-diaodu" unicode="&#58914;" d="M1279.402667 108.75733300000002c-27.029333 0-51.477333-11.093333-69.034667-28.928l-71.594667 60.288A302.805333 302.805333 0 0 1 1197.632 320c0 162.24-126.997333 294.805333-287.018667 303.765333v40a96.896 96.896 0 1 1-34.496 0v-40c-160-8.96-287.018667-141.525333-287.018666-303.765333 0-63.530667 19.477333-122.496 52.778666-171.264l-73.344-61.781333a96.874667 96.874667 0 1 1-61.226666-171.989334 96.917333 96.917333 0 0 1 83.648 145.770667l71.936 60.608a303.488 303.488 0 0 1 230.464-105.621333c88.362667 0 167.893333 37.674667 223.509333 97.813333l74.005333-62.357333a96.917333 96.917333 0 1 1 185.450667-39.317334 96.938667 96.938667 0 0 1-96.917333 96.896z m-529.28 63.317334l-32.768-32.704-26.154667 130.88 130.88-26.176-32.725333-32.725334 0.021333-0.042666c61.354667-61.333333 161.173333-61.333333 222.528 0 61.354667 61.354667 61.354667 161.216 0 222.549333-61.354667 61.354667-161.173333 61.354667-222.528 0a27.754667 27.754667 0 0 0-39.274667 39.274667c83.029333 83.050667 218.069333 83.008 301.056 0s83.050667-218.069333 0-301.077334c-82.986667-83.008-218.026667-82.986667-301.034666 0.021334z m0 0"  horiz-adv-x="1792" />

    
    <glyph glyph-name="SSO-pingtai" unicode="&#58915;" d="M1064.704 73.70666700000004H799.338667l-19.84-115.328a18.496 18.496 0 0 1 4.16-15.189334 18.901333 18.901333 0 0 1 14.421333-6.656h268.138667a18.773333 18.773333 0 0 1 17.834666 24.810667l-19.349333 112.362667z m0 0M1276.842667 752.7893329999999h-676.693334c-16.938667 0-30.634667-13.717333-30.634666-30.634666v-474.752H1307.498667V722.1759999999999c0 16.917333-13.717333 30.613333-30.656 30.613333zM634.56 408.64a41.429333 41.429333 0 0 0-41.6 41.28c0 22.741333 18.602667 41.216 41.6 41.216a41.472 41.472 0 0 0 39.210667-28.074667c1.429333-4.138667 2.368-8.512 2.368-13.12 0-22.826667-18.624-41.301333-41.578667-41.301333z m59.349333 70.826667a66.133333 66.133333 0 0 1-15.36 19.776l74.688 60.778666c4.074667-7.424 9.472-13.909333 15.957334-19.264l-75.285334-61.290666z m136.768 75.498666a41.258667 41.258667 0 0 0-19.029333-4.8 41.685333 41.685333 0 0 0-38.613333 25.962667 41.28 41.28 0 0 0-2.986667 15.274667c0 22.741333 18.581333 41.237333 41.578667 41.237333 22.954667 0 41.6-18.474667 41.6-41.237333 0-6.826667-1.834667-13.162667-4.821334-18.837334a40.832 40.832 0 0 0-17.728-17.6z m143.189334-141.845333l-124.778667 123.562667c6.976 4.714667 13.034667 10.688 17.770667 17.621333l124.8-123.541333a66.666667 66.666667 0 0 1-17.792-17.642667z m55.253333-78.272a41.386667 41.386667 0 0 0-41.6 41.194667c0 6.826667 1.813333 13.162667 4.778667 18.837333 3.968 7.573333 10.154667 13.717333 17.792 17.642667a41.386667 41.386667 0 0 0 19.050666 4.778666c6.485333 0 12.48-1.6 17.984-4.224 7.722667-3.712 14.08-9.706667 18.218667-17.152 3.306667-5.909333 5.354667-12.608 5.354667-19.882666a41.429333 41.429333 0 0 0-41.578667-41.194667z m54.016 79.744a67.2 67.2 0 0 1-18.261333 17.130667l124.288 130.368c4.970667-6.784 11.178667-12.586667 18.325333-17.066667l-124.352-130.432z m159.872 144.981333c-6.357333 0-12.330667 1.536-17.706667 4.074667a41.386667 41.386667 0 0 0-18.368 17.045333 40.298667 40.298667 0 0 0-5.504 20.096c0 22.784 18.645333 41.258667 41.578667 41.258667 22.954667 0 41.578667-18.453333 41.578667-41.258667a41.408 41.408 0 0 0-41.578667-41.216zM1349.546667 831.466667H524.096c-19.84 0-35.968-16.576-35.968-37.056v-646.208c0-20.501333 16.106667-37.098667 35.968-37.098667H1349.546667c19.818667 0 35.946667 16.597333 35.946666 37.098667V794.389333c-0.021333 20.48-16.149333 37.077333-35.946666 37.077334z m-18.432-607.082667H542.506667V746.858667c0 18.090667 14.656 32.725333 32.725333 32.725333h723.136c18.112 0 32.746667-14.656 32.746667-32.725333v-522.474667z"  horiz-adv-x="1792" />

    
    <glyph glyph-name="SSO-binding" unicode="&#58917;" d="M512 863.862154A478.601846 478.601846 0 0 1 32.216615 384.078769c0-265.885538 213.858462-479.822769 479.783385-479.822769s479.822769 213.937231 479.822769 479.822769C991.822769 649.924923 777.924923 863.862154 512 863.862154z m299.874462-359.857231l-317.833847-317.873231c-22.055385-21.976615-61.991385-21.976615-84.007384 0l-197.868308 197.947077s-30.011077 29.971692 0 59.943385c29.971692 29.971692 59.904 0 59.904 0l179.908923-179.948308 299.874462 299.874462s30.011077 30.011077 59.982769 0c30.050462-29.971692 0.039385-59.943385 0.039385-59.943385z m0 0"  horiz-adv-x="1024" />

    


  </font>
</defs>
</svg>
